<svg width="130" height="25" viewBox="0 0 130 25" fill="none" xmlns="http://www.w3.org/2000/svg">
<path d="M40.3905 7.96927H44.3228V19.1425H40.3905V17.1089C40.0094 17.8687 39.4836 18.4572 38.813 18.8743C38.1423 19.2914 37.3193 19.5 36.3438 19.5C34.8806 19.5 33.7909 19.0903 33.0745 18.2709C32.3582 17.4367 32 16.2672 32 14.7626V7.96927H35.9323V14.0922C35.9323 15.6266 36.6029 16.3939 37.9442 16.3939C38.7215 16.3939 39.3235 16.1331 39.7503 15.6117C40.1771 15.0754 40.3905 14.2784 40.3905 13.2207V7.96927Z" fill="#1A1B1A"/>
<path d="M50.2073 19.1425H45.8863L50.0473 13.757L45.772 7.96927H50.3673L52.4707 11.1648L54.4597 7.96927H58.6435L54.5968 13.5335L58.8721 19.1425H54.2768L52.2192 16.0363L50.2073 19.1425Z" fill="#1A1B1A"/>
<path d="M62.903 15.5447C62.9487 16.0214 63.1697 16.4162 63.566 16.729C63.9775 17.0419 64.5338 17.1983 65.235 17.1983C66.4238 17.1983 67.0182 16.8482 67.0182 16.148C67.0182 15.8203 66.9115 15.5596 66.6981 15.3659C66.5 15.1723 66.0961 15.0382 65.4864 14.9637L63.063 14.6955C61.9504 14.5763 61.1045 14.2337 60.5253 13.6676C59.9461 13.0866 59.6566 12.3119 59.6566 11.3436C59.6566 10.0773 60.1443 9.13873 61.1197 8.52793C62.1104 7.91713 63.4212 7.61173 65.0521 7.61173C66.7134 7.61173 68.0318 7.90968 69.0072 8.50559C69.9827 9.10149 70.5238 10.0251 70.6304 11.2765H67.0639C66.942 10.3529 66.279 9.89106 65.0749 9.89106C64.45 9.89106 63.9851 9.99534 63.6803 10.2039C63.3907 10.3976 63.2459 10.6583 63.2459 10.986C63.2459 11.567 63.6956 11.9022 64.5948 11.9916L66.9496 12.2151C68.2909 12.3492 69.2587 12.6993 69.8531 13.2654C70.4628 13.8166 70.7676 14.6285 70.7676 15.7011C70.7676 16.8631 70.3332 17.7868 69.4645 18.4721C68.5957 19.1574 67.163 19.5 65.1664 19.5C63.2154 19.5 61.7675 19.1276 60.8225 18.3827C59.8776 17.6378 59.3822 16.6918 59.3365 15.5447H62.903Z" fill="#1A1B1A"/>
<path d="M77.8138 19.1425C76.122 19.1425 74.9332 18.7849 74.2473 18.0698C73.5615 17.3547 73.2185 16.2449 73.2185 14.7402V10.852H71.2066V9.06424L73.5386 8.05866L75.1618 5.26536H77.1508V7.96927H80.2601V10.852H77.1508V16.1034H79.8943V19.1425H77.8138Z" fill="#1A1B1A"/>
<path d="M90.3124 7.96927H94.2447V19.1425H90.3124V17.1089C89.9313 17.8687 89.4055 18.4572 88.7349 18.8743C88.0642 19.2914 87.2412 19.5 86.2657 19.5C84.8025 19.5 83.7128 19.0903 82.9964 18.2709C82.2801 17.4367 81.9219 16.2672 81.9219 14.7626V7.96927H85.8542V14.0922C85.8542 15.6266 86.5248 16.3939 87.8661 16.3939C88.6434 16.3939 89.2455 16.1331 89.6722 15.6117C90.099 15.0754 90.3124 14.2784 90.3124 13.2207V7.96927Z" fill="#1A1B1A"/>
<path d="M105.037 3.5H108.97V19.1425H105.037V17.6229C104.199 18.8743 102.865 19.5 101.036 19.5C99.2531 19.5 97.9271 18.9413 97.0583 17.824C96.2048 16.7067 95.778 15.2765 95.778 13.5335C95.778 11.8352 96.2124 10.4274 97.0812 9.31006C97.95 8.17784 99.2683 7.61173 101.036 7.61173C102.865 7.61173 104.199 8.23743 105.037 9.48883V3.5ZM102.34 16.5056C103.315 16.5056 104.008 16.2747 104.42 15.8128C104.832 15.3361 105.037 14.5838 105.037 13.5559C105.037 12.5279 104.832 11.7831 104.42 11.3212C104.008 10.8445 103.315 10.6061 102.34 10.6061C101.379 10.6061 100.701 10.8371 100.305 11.2989C99.9237 11.7458 99.7332 12.4981 99.7332 13.5559C99.7332 14.6136 99.9237 15.3734 100.305 15.8352C100.701 16.2821 101.379 16.5056 102.34 16.5056Z" fill="#1A1B1A"/>
<path d="M115.193 19.1425H111.261V7.96927H115.193V19.1425ZM115.262 6.60615H111.192V4.28212H115.262V6.60615Z" fill="#1A1B1A"/>
<path d="M123.439 19.5C121.899 19.5 120.642 19.2244 119.666 18.6732C118.691 18.122 117.982 17.3994 117.54 16.5056C117.113 15.6117 116.9 14.6285 116.9 13.5559C116.9 12.4832 117.113 11.5 117.54 10.6061C117.982 9.71229 118.691 8.98976 119.666 8.43855C120.642 7.88734 121.899 7.61173 123.439 7.61173C124.978 7.61173 126.235 7.88734 127.211 8.43855C128.186 8.98976 128.895 9.71229 129.337 10.6061C129.779 11.5 130 12.4832 130 13.5559C130 14.6285 129.779 15.6117 129.337 16.5056C128.895 17.3994 128.186 18.122 127.211 18.6732C126.235 19.2244 124.978 19.5 123.439 19.5ZM120.832 13.5559C120.832 14.6583 121.03 15.4255 121.427 15.8575C121.823 16.2896 122.494 16.5056 123.439 16.5056C124.384 16.5056 125.054 16.2896 125.45 15.8575C125.847 15.4255 126.045 14.6583 126.045 13.5559C126.045 12.4534 125.847 11.6862 125.45 11.2542C125.054 10.8222 124.384 10.6061 123.439 10.6061C122.494 10.6061 121.823 10.8222 121.427 11.2542C121.03 11.6862 120.832 12.4534 120.832 13.5559Z" fill="#1A1B1A"/>
<path fill-rule="evenodd" clip-rule="evenodd" d="M0 23V24.5H1.5H22.5H24V23V2V0.5C23.0396 0.5 22.1185 0.88153 21.4393 1.56066L12 11L2.56066 1.56066C1.88153 0.88153 0.960434 0.5 0 0.5V2V23ZM12 14L20.5 22.5H3.5L12 14ZM10.5 12.5L2 4V21L10.5 12.5ZM13.5 12.5L22 4V21L13.5 12.5Z" fill="#3AEE94"/>
</svg>
